<svg width="128" height="128" viewBox="0 0 128 128" fill="none" xmlns="http://www.w3.org/2000/svg">
<rect width="128" height="128" rx="25" fill="#09090B"/>
<path d="M46.3205 54L40.547 57.3333V64V70.6667V77.3333L46.3205 80.6667L52.094 84V90.6667L46.3205 87.3333L40.547 84L34.7735 80.6667L34.7735 74V67.3333V60.6667V54V47.3333L29 44V50.6667V57.3333V64V70.6667L29 77.3333L29 84L34.7735 87.3333L40.547 90.6667L46.3205 94L52.094 97.3333L57.8675 100.667V94V87.3333L57.8675 80.6667L52.094 77.3333L46.3205 74V67.3333V60.6667L52.094 57.3333L46.3205 54Z" fill="#FAFAFA"/>
<path d="M80.9615 54L80.9615 47.3333L75.188 44L69.4145 40.6667L63.641 37.3333L57.8675 40.6667L52.094 44L46.3205 40.6667L52.094 37.3333L57.8675 34L63.641 30.6667L69.4145 34L75.188 37.3333L80.9615 40.6667L86.735 44L92.5085 47.3333L98.282 44L92.5085 40.6667L86.735 37.3333L80.9615 34L75.188 30.6667L69.4145 27.3333L63.641 24L57.8675 27.3333L52.094 30.6667L46.3205 34L40.547 37.3333L34.7735 40.6667L40.547 44L46.3205 47.3333L52.094 50.6667L57.8675 47.3333L63.641 44L69.4145 47.3333L75.188 50.6667V57.3333L80.9615 54Z" fill="#FAFAFA"/>
<path d="M63.641 77.3333V84L69.4145 87.3333L75.188 84L80.9615 80.6667L86.735 77.3333L86.735 70.6667V64L92.5085 60.6667V67.3333V74V80.6667L86.735 84L80.9615 87.3333L75.188 90.6667L69.4145 94L63.641 97.3333L63.641 104L69.4145 100.667L75.188 97.3333L80.9615 94L86.735 90.6667L92.5085 87.3333L98.282 84V77.3333V70.6667V64V57.3333V50.6667L92.5085 54L86.735 57.3333L80.9615 60.6667V67.3333V74L75.188 77.3333L69.4145 80.6667L63.641 77.3333Z" fill="#FAFAFA"/>
<path fill-rule="evenodd" clip-rule="evenodd" d="M63.641 77.3333L69.4145 74L75.188 70.6667V64V57.3333L69.4145 54L63.641 50.6667L57.8675 54L52.094 57.3333V64V70.6667L57.8675 74L63.641 77.3333ZM69.4145 67.3333L63.641 70.6667L57.8675 67.3333V60.6667L63.641 57.3333L69.4145 60.6667V67.3333Z" fill="#FAFAFA"/>
</svg>
