<svg width="174" height="200" viewBox="0 0 174 200" fill="none" xmlns="http://www.w3.org/2000/svg">
<path d="M43.3013 75L28.8675 83.3333V100V116.667V133.333L43.3013 141.667L57.735 150V166.667L43.3013 158.333L28.8675 150L14.4338 141.667L14.4338 125V108.333V91.6667V75V58.3333L0 50V66.6667V83.3333V100V116.667L1.10121e-05 133.333L0 150L14.4338 158.333L28.8675 166.667L43.3013 175L57.735 183.333L72.1688 191.667V175V158.333L72.1688 141.667L57.735 133.333L43.3013 125V108.333V91.6667L57.735 83.3333L43.3013 75Z" fill="url(#paint0_linear_796_107)"/>
<path d="M129.904 75L129.904 58.3333L115.47 50L101.036 41.6667L86.6026 33.3333L72.1688 41.6667L57.735 50L43.3013 41.6667L57.735 33.3333L72.1688 25L86.6026 16.6667L101.036 25L115.47 33.3334L129.904 41.6667L144.338 50L158.771 58.3333L173.205 50L158.771 41.6667L144.338 33.3333L129.904 25L115.47 16.6667L101.036 8.33334L86.6025 0L72.1688 8.33335L57.735 16.6667L43.3013 25L28.8675 33.3333L14.4338 41.6667L28.8675 50L43.3013 58.3333L57.735 66.6667L72.1688 58.3333L86.6026 50L101.036 58.3333L115.47 66.6667V83.3333L129.904 75Z" fill="url(#paint1_linear_796_107)"/>
<path d="M86.6026 133.333V150L101.036 158.333L115.47 150L129.904 141.667L144.338 133.333L144.338 116.667V100L158.771 91.6666V108.333V125V141.667L144.338 150L129.904 158.333L115.47 166.667L101.036 175L86.6026 183.333L86.6025 200L101.036 191.667L115.47 183.333L129.904 175L144.338 166.667L158.771 158.333L173.205 150V133.333V116.667V100V83.3333V66.6667L158.771 75L144.338 83.3333L129.904 91.6667V108.333V125L115.47 133.333L101.036 141.667L86.6026 133.333Z" fill="url(#paint2_linear_796_107)"/>
<path fill-rule="evenodd" clip-rule="evenodd" d="M86.6026 133.333L101.036 125L115.47 116.667V100V83.3333L101.036 75L86.6026 66.6667L72.1688 75L57.735 83.3333V100V116.667L72.1688 125L86.6026 133.333ZM101.036 108.333L86.6026 116.667L72.1688 108.333V91.6667L86.6026 83.3333L101.036 91.6667V108.333Z" fill="url(#paint3_linear_796_107)"/>
<defs>
<linearGradient id="paint0_linear_796_107" x1="0" y1="0" x2="173" y2="200" gradientUnits="userSpaceOnUse">
<stop stop-color="#FAFAFA"/>
<stop offset="1" stop-color="#A1A1AA"/>
</linearGradient>
<linearGradient id="paint1_linear_796_107" x1="0" y1="0" x2="173" y2="200" gradientUnits="userSpaceOnUse">
<stop stop-color="#FAFAFA"/>
<stop offset="1" stop-color="#A1A1AA"/>
</linearGradient>
<linearGradient id="paint2_linear_796_107" x1="0" y1="0" x2="173" y2="200" gradientUnits="userSpaceOnUse">
<stop stop-color="#FAFAFA"/>
<stop offset="1" stop-color="#A1A1AA"/>
</linearGradient>
<linearGradient id="paint3_linear_796_107" x1="0" y1="0" x2="173" y2="200" gradientUnits="userSpaceOnUse">
<stop stop-color="#FAFAFA"/>
<stop offset="1" stop-color="#A1A1AA"/>
</linearGradient>
</defs>
</svg>
